<?xml version="1.0" encoding="UTF-8" standalone="no"?>
<!DOCTYPE svg PUBLIC "-//W3C//DTD SVG 1.1//EN"
 "http://www.w3.org/Graphics/SVG/1.1/DTD/svg11.dtd">
<!-- Generated by graphviz version 2.40.1 (20161225.0304)
 -->
<!-- Title: G Pages: 1 -->
<svg width="174pt" height="381pt"
 viewBox="0.00 0.00 173.81 381.00" xmlns="http://www.w3.org/2000/svg" xmlns:xlink="http://www.w3.org/1999/xlink">
<g id="graph0" class="graph" transform="scale(1 1) rotate(0) translate(4 377)">
<title>G</title>
<polygon fill="#ffffff" stroke="transparent" points="-4,4 -4,-377 169.814,-377 169.814,4 -4,4"/>
<g id="clust1" class="cluster">
<title>cluster_Global</title>
<path fill="none" stroke="#c0c0c0" d="M20,-8C20,-8 145.814,-8 145.814,-8 151.814,-8 157.814,-14 157.814,-20 157.814,-20 157.814,-353 157.814,-353 157.814,-359 151.814,-365 145.814,-365 145.814,-365 20,-365 20,-365 14,-365 8,-359 8,-353 8,-353 8,-20 8,-20 8,-14 14,-8 20,-8"/>
<text text-anchor="middle" x="82.907" y="-352.2" font-family="Times,serif" font-size="11.00" fill="#c0c0c0">Global</text>
</g>
<g id="clust2" class="cluster">
<title>cluster_\CNZ</title>
<path fill="none" stroke="#c0c0c0" d="M28,-16C28,-16 137.814,-16 137.814,-16 143.814,-16 149.814,-22 149.814,-28 149.814,-28 149.814,-326 149.814,-326 149.814,-332 143.814,-338 137.814,-338 137.814,-338 28,-338 28,-338 22,-338 16,-332 16,-326 16,-326 16,-28 16,-28 16,-22 22,-16 28,-16"/>
<text text-anchor="middle" x="82.907" y="-325.2" font-family="Times,serif" font-size="11.00" fill="#c0c0c0">CNZ</text>
</g>
<g id="clust3" class="cluster">
<title>cluster_\CNZ\Helpers</title>
<path fill="none" stroke="#c0c0c0" d="M36,-24C36,-24 129.814,-24 129.814,-24 135.814,-24 141.814,-30 141.814,-36 141.814,-36 141.814,-299 141.814,-299 141.814,-305 135.814,-311 129.814,-311 129.814,-311 36,-311 36,-311 30,-311 24,-305 24,-299 24,-299 24,-36 24,-36 24,-30 30,-24 36,-24"/>
<text text-anchor="middle" x="82.907" y="-298.2" font-family="Times,serif" font-size="11.00" fill="#c0c0c0">Helpers</text>
</g>
<!-- \\CNZ\\Helpers\\UserHelpers -->
<g id="node1" class="node">
<title>\\CNZ\\Helpers\\UserHelpers</title>
<polygon fill="none" stroke="#000000" points="127.0196,-284 38.7943,-284 38.7943,-248 127.0196,-248 127.0196,-284"/>
<text text-anchor="middle" x="82.907" y="-262.7" font-family="Courier,monospace" font-size="11.00" fill="#000000">UserHelpers</text>
</g>
<!-- \\CNZ\\Helpers\\MobileHelpers -->
<g id="node2" class="node">
<title>\\CNZ\\Helpers\\MobileHelpers</title>
<polygon fill="none" stroke="#000000" points="133.7211,-230 32.0928,-230 32.0928,-194 133.7211,-194 133.7211,-230"/>
<text text-anchor="middle" x="82.907" y="-208.7" font-family="Courier,monospace" font-size="11.00" fill="#000000">MobileHelpers</text>
</g>
<!-- \\CNZ\\Helpers\\StringHelpers -->
<g id="node3" class="node">
<title>\\CNZ\\Helpers\\StringHelpers</title>
<polygon fill="none" stroke="#000000" points="133.7211,-176 32.0928,-176 32.0928,-140 133.7211,-140 133.7211,-176"/>
<text text-anchor="middle" x="82.907" y="-154.7" font-family="Courier,monospace" font-size="11.00" fill="#000000">StringHelpers</text>
</g>
<!-- \\CNZ\\Helpers\\ArrayHelpers -->
<g id="node4" class="node">
<title>\\CNZ\\Helpers\\ArrayHelpers</title>
<polygon fill="none" stroke="#000000" points="130.6201,-122 35.1939,-122 35.1939,-86 130.6201,-86 130.6201,-122"/>
<text text-anchor="middle" x="82.907" y="-100.7" font-family="Courier,monospace" font-size="11.00" fill="#000000">ArrayHelpers</text>
</g>
<!-- \\CNZ\\Helpers\\CommonHelpers -->
<g id="node5" class="node">
<title>\\CNZ\\Helpers\\CommonHelpers</title>
<polygon fill="none" stroke="#000000" points="133.7211,-68 32.0928,-68 32.0928,-32 133.7211,-32 133.7211,-68"/>
<text text-anchor="middle" x="82.907" y="-46.7" font-family="Courier,monospace" font-size="11.00" fill="#000000">CommonHelpers</text>
</g>
</g>
</svg>
